REM GENRE Ambient
REM DATE 2018
REM DISCID 060BD714
REM COMMENT "ExactAudioCopy v1.1"
PERFORMER "Various Artists"
TITLE "Late Night Tales - Agnes Obel"
FILE "01 - Henry Mancini -  The Exit Theme.wav" WAVE
  TRACK 01 AUDIO
    TITLE "The Exit Theme"
    PERFORMER "Henry Mancini"
    ISRC GB5EM1801762
    INDEX 01 00:00:00
FILE "02 - Roger Webb -  Moonbird.wav" WAVE
  TRACK 02 AUDIO
    TITLE "Moonbird"
    PERFORMER "Roger Webb"
    ISRC UKATG1545564
    INDEX 01 00:00:00
FILE "03 - Eden Ahbez -  Eden's Island.wav" WAVE
  TRACK 03 AUDIO
    TITLE "Eden's Island"
    PERFORMER "Eden Ahbez"
    ISRC USRH10721275
    INDEX 01 00:00:00
FILE "04 - Lee Hazelwood -  The Nights.wav" WAVE
  TRACK 04 AUDIO
    TITLE "The Nights"
    PERFORMER "Lee Hazelwood"
    ISRC USUR10400125
    INDEX 01 00:00:00
FILE "05 - Nora Dean -  Ay Ay Ay Ay (Angle-Lala).wav" WAVE
  TRACK 05 AUDIO
    TITLE "Ay Ay Ay Ay (Angle-Lala)"
    PERFORMER "Nora Dean"
    ISRC GB5KW1600434
    INDEX 01 00:00:00
FILE "06 - Yello -  Great Mission.wav" WAVE
  TRACK 06 AUDIO
    TITLE "Great Mission"
    PERFORMER "Yello"
    ISRC DEF078302120
    INDEX 01 00:00:00
FILE "07 - Quarteto Em Cy with Tamba Trio -  Aleluia.wav" WAVE
  TRACK 07 AUDIO
    TITLE "Aleluia"
    PERFORMER "Quarteto Em Cy with Tamba Trio"
    ISRC BRMCA6600258
    INDEX 01 00:00:00
FILE "08 - Lena Platonos -  Bloody Shadows From A Distance.wav" WAVE
  TRACK 08 AUDIO
    TITLE "Bloody Shadows From A Distance"
    PERFORMER "Lena Platonos"
    ISRC USQY51728406
    INDEX 01 00:00:00
FILE "09 - Ray Davies -  I Go To Sleep.wav" WAVE
  TRACK 09 AUDIO
    TITLE "I Go To Sleep"
    PERFORMER "Ray Davies"
    ISRC GB5KW1499545
    INDEX 01 00:00:00
FILE "10 - Alfred Schnittke -  Piano Quintet, V.wav" WAVE
  TRACK 10 AUDIO
    TITLE "Piano Quintet, V"
    PERFORMER "Alfred Schnittke"
    ISRC SEAEF9247050
    INDEX 01 00:00:00
FILE "11 - Agnes Obel -  Stretch Your Eyes (Ambient Acapella).wav" WAVE
  TRACK 11 AUDIO
    TITLE "Stretch Your Eyes (Ambient Acapella)"
    PERFORMER "Agnes Obel"
    ISRC GB5EM1801763
    INDEX 01 00:00:00
FILE "12 - The Bulgarian State Radio & Television Female Choir -  Pilentze Pee (Pilentze Sings).wav" WAVE
  TRACK 12 AUDIO
    TITLE "Pilentze Pee (Pilentze Sings)"
    PERFORMER "The Bulgarian State Radio & Television Female Choir"
    ISRC GBAFL8600001
    INDEX 01 00:00:00
FILE "13 - Agnes Obel -  Glemmer Du.wav" WAVE
  TRACK 13 AUDIO
    TITLE "Glemmer Du"
    PERFORMER "Agnes Obel"
    ISRC GB5EM1801764
    INDEX 01 00:00:00
FILE "14 - Agnes Obel -  Bee Dance.wav" WAVE
  TRACK 14 AUDIO
    TITLE "Bee Dance"
    PERFORMER "Agnes Obel"
    ISRC GB5EM1801765
    INDEX 01 00:00:00
FILE "15 - Sibylle Baier -  The End.wav" WAVE
  TRACK 15 AUDIO
    TITLE "The End"
    PERFORMER "Sibylle Baier"
    ISRC US54F0610018
    INDEX 01 00:00:00
FILE "16 - Michelle Gurevich -  Party Girl.wav" WAVE
  TRACK 16 AUDIO
    TITLE "Party Girl"
    PERFORMER "Michelle Gurevich"
    ISRC TCACR1698341
    INDEX 01 00:00:00
FILE "17 - CAN -  Oscura Primavera.wav" WAVE
  TRACK 17 AUDIO
    TITLE "Oscura Primavera"
    PERFORMER "CAN"
    ISRC DEX171225508
    INDEX 01 00:00:00
FILE "18 - David Lang -  I Lie.wav" WAVE
  TRACK 18 AUDIO
    TITLE "I Lie"
    PERFORMER "David Lang"
    ISRC USHM10849617
    INDEX 01 00:00:00
FILE "19 - Nina Simone -  Images (Live In New York 1964).wav" WAVE
  TRACK 19 AUDIO
    TITLE "Images (Live In New York 1964)"
    PERFORMER "Nina Simone"
    ISRC USPR36402688
    INDEX 01 00:00:00
FILE "20 - Agnes Obel -  Poem About Death.wav" WAVE
  TRACK 20 AUDIO
    TITLE "Poem About Death"
    PERFORMER "Agnes Obel"
    ISRC GB5EM1801766
    INDEX 01 00:00:00
